<?xml version="1.0" encoding="iso-8859-1"?>
<!-- Generator: Adobe Illustrator 16.0.0, SVG Export Plug-In . SVG Version: 6.00 Build 0)  -->
<!DOCTYPE svg PUBLIC "-//W3C//DTD SVG 1.1//EN" "http://www.w3.org/Graphics/SVG/1.1/DTD/svg11.dtd">
<svg version="1.1" id="Capa_1" xmlns="http://www.w3.org/2000/svg" xmlns:xlink="http://www.w3.org/1999/xlink" x="0px" y="0px"
	 width="31.538px" height="31.539px" viewBox="0 0 31.538 31.539" style="enable-background:new 0 0 31.538 31.539;"
	 xml:space="preserve">
<g>
	<g>
		<path d="M19.873,23.96c-0.612-0.154-1.245-0.396-1.779-0.769c-0.536-0.377-0.95-0.877-1.181-1.483
			c-0.479-1.204-0.286-2.815,0.167-4.343l0.386-1.195c0.165-0.535,0.299-1.097,0.351-1.684c0.116-1.167-0.062-2.409-0.487-3.477
			c-0.396-1.03-0.962-1.916-1.561-2.646c0.087-2.271-1.359-4.76-3.877-6.259C8.519,0.097,4.502,0.625,2.92,3.282
			C1.337,5.94,2.788,9.719,6.16,11.727c2.264,1.349,4.815,1.554,6.728,0.74c0.157,0.156,0.302,0.321,0.43,0.495
			c0.328,0.427,0.548,0.914,0.652,1.502c0.058,0.292,0.063,0.612,0.051,0.945c-0.043,0.473-0.09,0.884-0.123,1.428
			c-0.058,1.001-0.04,1.999,0.13,3.01c0.18,1.005,0.508,2.024,1.114,2.875c0.588,0.86,1.437,1.472,2.261,1.795
			c0.832,0.328,1.632,0.426,2.345,0.441c1.429,0.013,2.54-0.263,3.306-0.459c0.766-0.208,1.186-0.359,1.186-0.359
			s-0.447,0.055-1.228,0.085C22.24,24.25,21.111,24.258,19.873,23.96z"/>
		<path d="M12.345,30.168c-0.484-0.03-1.192-0.091-1.936-0.35c-0.745-0.251-1.456-0.783-1.607-1.508
			c-0.187-0.71,0.023-1.65,0.392-2.548l0.31-0.71c0.138-0.349,0.258-0.72,0.322-1.114c0.141-0.786,0.082-1.648-0.154-2.398
			c-0.313-1.009-0.819-1.8-1.347-2.437c-0.199-1.161-0.964-2.342-2.174-3.155c-2.043-1.376-4.577-1.185-5.662,0.425
			c-1.084,1.609-0.306,4.029,1.736,5.406c1.179,0.793,2.521,1.064,3.654,0.844c0.137,0.112,0.261,0.23,0.365,0.356
			c0.184,0.213,0.314,0.447,0.385,0.763c0.038,0.155,0.046,0.331,0.043,0.521l-0.101,0.915c-0.055,0.652-0.06,1.299,0.031,1.97
			c0.099,0.663,0.295,1.346,0.681,1.929c0.374,0.587,0.929,1.014,1.464,1.243c0.54,0.229,1.057,0.305,1.513,0.328
			c0.917,0.029,1.623-0.133,2.108-0.247c0.486-0.122,0.753-0.211,0.753-0.211S12.835,30.195,12.345,30.168z"/>
		<path d="M30.764,17.172c-0.482-0.052-1.187-0.144-1.919-0.436c-0.732-0.285-1.418-0.848-1.538-1.577
			c-0.155-0.718,0.097-1.65,0.504-2.528l0.342-0.696c0.153-0.342,0.29-0.708,0.371-1.1c0.176-0.779,0.154-1.642-0.048-2.401
			c-0.267-1.023-0.738-1.836-1.236-2.493c-0.148-1.17-0.86-2.384-2.031-3.25c-1.979-1.464-4.521-1.388-5.675,0.174
			c-1.155,1.559-0.485,4.012,1.493,5.476c1.144,0.846,2.473,1.177,3.613,1.007c0.131,0.118,0.25,0.243,0.349,0.372
			c0.174,0.222,0.295,0.463,0.351,0.779c0.032,0.157,0.032,0.333,0.021,0.522l-0.143,0.91c-0.084,0.648-0.118,1.295-0.056,1.968
			c0.067,0.667,0.232,1.357,0.593,1.957c0.348,0.604,0.882,1.054,1.407,1.306c0.528,0.256,1.042,0.354,1.497,0.395
			c0.915,0.071,1.627-0.059,2.117-0.15c0.489-0.101,0.762-0.179,0.762-0.179S31.253,17.22,30.764,17.172z"/>
	</g>
</g>
<g>
</g>
<g>
</g>
<g>
</g>
<g>
</g>
<g>
</g>
<g>
</g>
<g>
</g>
<g>
</g>
<g>
</g>
<g>
</g>
<g>
</g>
<g>
</g>
<g>
</g>
<g>
</g>
<g>
</g>
</svg>
