<?xml version="1.0" encoding="iso-8859-1"?>
<!-- Generator: Adobe Illustrator 16.0.0, SVG Export Plug-In . SVG Version: 6.00 Build 0)  -->
<!DOCTYPE svg PUBLIC "-//W3C//DTD SVG 1.1//EN" "http://www.w3.org/Graphics/SVG/1.1/DTD/svg11.dtd">
<svg version="1.1" id="Capa_1" xmlns="http://www.w3.org/2000/svg" xmlns:xlink="http://www.w3.org/1999/xlink" x="0px" y="0px"
	 width="162.136px" height="162.136px" viewBox="0 0 162.136 162.136" style="enable-background:new 0 0 162.136 162.136;"
	 xml:space="preserve">
<g>
	<g id="dON5Ri_1_">
		<g>
			<g>
				<path d="M141.223,156.808c-3.25,0.229-6.333,1.123-9.547-0.223c0.665-2.153,1.238-4.256,1.975-6.297
					c0.691-1.93,1.523-3.783,0.93-5.921c-0.132-0.482,0.025-1.087,0.168-1.604c1-3.545,0.573-7.135,0.411-10.725
					c-0.224-5.16-1.493-10.034-3.388-14.808c-0.34-0.868-0.319-2.042-0.056-2.956c0.528-1.812,0.33-3.493-0.01-5.296
					c-0.854-4.494-2.311-8.79-3.95-13.025c-0.874-2.254-2.042-4.397-3.174-6.804c-1.214,1.27-1.6,2.681-1.966,4.194
					c-1.056,4.423,0.468,8.348,2.214,12.223c0.838,1.858,1.854,3.641,2.737,5.479c0.33,0.696,0.792,1.483,0.736,2.194
					c-0.224,2.854-0.056,5.713-0.573,8.571c-0.508,2.757-0.569,5.596-0.752,8.404c-0.102,1.563,0.371,3.296-0.152,4.677
					c-1.178,3.148,0.198,6.175-0.066,9.236c-0.07,0.844-0.152,1.687-0.192,2.128c-1.336,0.884-2.423,1.468-3.347,2.234
					c-1.32,1.106-1.793,2.376-0.898,4.144c1,2.001-0.193,4.134-2.361,4.266c-2.504,0.157-5.022,0.01-7.531-0.041
					c-0.264-0.005-0.533-0.264-1.021-0.527c0.939-2.107,1.874-4.104,3.321-5.881c1.468-1.808,3.021-3.605,4.118-5.637
					c0.741-1.386,0.935-3.148,1.046-4.763c0.31-4.362,0.568-8.734,0.594-13.106c0.011-1.757-0.518-3.55-1.021-5.266
					c-0.746-2.555-1.614-5.083-2.584-7.566c-0.676-1.736-1.366-3.545-2.453-5.037c-1.98-2.722-3.133-5.748-4.194-8.887
					c-0.746-2.209-1.833-4.296-2.783-6.438c-0.223-0.498-0.508-0.976-0.767-1.458c-0.274,0.193-0.554,0.387-0.827,0.574
					c0.223,0.67-2.255,0.843-4.007,1.366c-4.372,1.3-8.882,1.873-13.451,1.904c-2.199,0.01-4.397-0.021-6.594,0.07
					c-2.216,0.092-2.508,0.498-2.549,2.712c-0.109,6.662-0.302,13.319-0.333,19.982c-0.016,2.736,0.307,5.469,0.447,8.2
					c0.03,0.63,0.104,1.325-0.125,1.869c-1.607,3.864-0.625,7.733-0.104,11.593c0.229,1.701,0.655,3.377,1.031,5.048
					c0.368,1.65-0.104,3.143-0.952,4.483c-1.097,1.747-1.186,3.372,0.188,4.967c1.609,1.879,0.721,4.062,0.696,6.113
					c-0.005,0.315-0.889,0.889-1.379,0.899c-3.121,0.076-6.243,0.086-9.364,0.005c-1.364-0.036-1.722-0.635-1.15-1.828
					c1.244-2.59,1.851-5.454,3.707-7.79c0.927-1.157,1.3-2.63,1.181-4.215c-0.076-0.995,0.063-2.036,0.297-3.006
					c1.076-4.453,0.446-8.896,0.01-13.34c-0.051-0.522-0.333-1.046-0.591-1.523c-1.988-3.661-2.311-7.541-1.925-11.628
					c0.213-2.229-0.048-4.54-0.337-6.785c-0.495-3.808-1.12-7.602-1.815-11.374c-0.203-1.092-0.843-2.107-1.28-3.148
					c-0.175,0.021-0.353,0.046-0.526,0.065c-0.259,1.275-0.69,2.55-0.744,3.834c-0.195,4.688-0.279,9.385-0.388,14.082
					c-0.016,0.619,0.119,1.249,0.099,1.879c-0.083,2.569-0.271,5.139-0.292,7.713c-0.041,5.551,0.016,11.105-0.015,16.656
					c-0.01,1.549-0.089,3.112-0.333,4.636c-0.094,0.609-0.645,1.203-1.112,1.676c-1.863,1.904-3.179,3.899-1.711,6.657
					c0.576,1.087-0.125,1.971-0.353,3.001c-0.688,3.026-2.808,2.61-4.885,2.601c-1.724,0-3.455,0.02-5.177-0.051
					c-0.734-0.036-1.458-0.27-2.615-0.503c0.612-0.98,1.023-1.59,1.386-2.225c1.562-2.712,3.042-5.459,5.279-7.729
					c1.582-1.6,2.117-3.61,2.531-5.886c0.823-4.534,0.744-9.059,0.759-13.599c0.007-0.7,0.033-1.442-0.165-2.103
					c-1.254-4.123-1.211-8.363-1.216-12.593c-0.005-4.646-1.211-9.115-3.125-13.183c-1.81-3.85-2.465-7.724-2.734-11.821
					c-0.053-0.772-0.442-1.727-1.005-2.245c-3.316-3.066-4.854-7.073-6-11.26c-0.254-0.925-0.119-2.029,0.104-2.988
					c1.003-4.37,1.939-8.732,1.429-13.256c-0.051-0.462,0-0.958-0.134-1.394c-2.049-6.446-4.789-12.593-8.191-18.443
					c-0.061-0.045-0.165-0.061-0.488-0.223c-4.717,2.204-9.595,4.494-14.472,6.764c-1.051,0.49-1.678,1.234-2.115,2.351
					c-1.503,3.834-5.119,4.697-8.32,2.098c-3.506-2.841-4.352-7.267-2.471-11.396c1.768-3.867,3.806-7.548,6.267-11.021
					c0.972-1.374,1.653-3.049,1.143-4.669c-0.914-2.907,0.396-5.228,1.612-7.566c0.937-1.8,2.147-3.458,3.283-5.238
					c-1.432-3.425-3.844-6.675-2.991-11.318c2.823,2.739,5.299,5.142,7.794,7.566c0.952-0.348,1.747-0.64,2.501-0.917
					C30.297,4.956,30.52,2.569,30.764,0c1.78,0.729,2.387,2.107,3.016,3.532c0.912,2.059,1.935,4.07,2.813,5.901
					c1.562,0,2.768-0.203,3.87,0.048c1.98,0.442,3.712,1.257,5.06,3.067c1.072,1.439,2.734,2.531,4.309,3.483
					c3.413,2.059,6.756,4.197,10.085,6.396c5.406,3.583,9.29,8.257,12.525,13.686c0.427,0.718,0.978,1.571,1.681,1.879
					c2.833,1.231,4.72,3.598,6.967,5.522c3.265,2.786,6.743,3.951,11.191,3.349c4.9-0.668,9.359-2.58,14.056-3.775
					c4.154-1.057,8.344-1.326,12.563-0.749c3.25,0.441,6.022,2.12,8.774,3.821c1.509,0.932,3.148,1.835,4.854,2.227
					c5.302,1.216,8.861,4.456,11.319,9.109c4.326,8.193,6.703,17.05,8.703,26.018c0.102,0.446,0.143,0.949,0.051,1.391
					c-0.497,2.529-1.086,5.043-0.589,7.775c-0.279-0.366-0.554-0.727-1.03-1.366c0.157,5.758,0.305,11.253,0.457,16.747
					c-0.143,0.01-0.285,0.021-0.427,0.03c-0.087-0.935-0.173-1.879-0.259-2.813c-0.112,0-0.224,0-0.336,0
					c0,0.895-0.005,1.788,0,2.682c0.025,2.787-0.213,5.616,0.193,8.348c0.213,1.453-1.355,1.229-1.229,2.158
					c0.102,0.701,0.675,1.407,0.578,2.047c-0.162,1.106-1.025,1.32-2.143,1.224c-1.285-0.106-2.422-0.086-2.193-1.899
					c-0.503,0.523-0.868,1.184-1.376,1.336c-0.442,0.132-1.057-0.325-1.61-0.528c-0.233,0.3-0.502,0.65-0.863,1.107
					c-0.223-0.457-0.35-0.731-0.492-1.006c-0.106,0.061-0.284,0.111-0.31,0.203c-0.482,1.63-1.193,3.234-1.351,4.896
					c-0.3,3.188-0.442,6.408-0.341,9.607c0.051,1.67,0.635,3.361,1.198,4.966c0.752,2.133,0.691,4.175-0.259,6.175
					c-0.808,1.706-0.884,3.22,0.411,4.799C141.877,152.908,141.609,154.751,141.223,156.808z M149.855,102.402
					c0.092,0,0.193-0.01,0.284-0.01c0-2.91,0-5.814,0-8.724c-0.091,0-0.192,0-0.284,0.01
					C149.855,96.583,149.855,99.487,149.855,102.402z"/>
			</g>
		</g>
	</g>
</g>
<g>
</g>
<g>
</g>
<g>
</g>
<g>
</g>
<g>
</g>
<g>
</g>
<g>
</g>
<g>
</g>
<g>
</g>
<g>
</g>
<g>
</g>
<g>
</g>
<g>
</g>
<g>
</g>
<g>
</g>
</svg>
