<?xml version="1.0" encoding="iso-8859-1"?>
<!-- Generator: Adobe Illustrator 18.0.0, SVG Export Plug-In . SVG Version: 6.00 Build 0)  -->
<!DOCTYPE svg PUBLIC "-//W3C//DTD SVG 1.1//EN" "http://www.w3.org/Graphics/SVG/1.1/DTD/svg11.dtd">
<svg version="1.1" id="Capa_1" xmlns="http://www.w3.org/2000/svg" xmlns:xlink="http://www.w3.org/1999/xlink" x="0px" y="0px"
	 viewBox="0 0 55.776 55.776" style="enable-background:new 0 0 55.776 55.776;" xml:space="preserve">
<g>
	<path d="M8.319,29.536c-0.247-0.335-0.622-0.553-1.036-0.601c-0.414-0.049-0.829,0.078-1.145,0.35L4.081,31.04
		c-0.599,0.511-0.701,1.398-0.232,2.032l16.333,22.096c0.284,0.385,0.733,0.608,1.206,0.608c0.048,0,0.097-0.002,0.146-0.007
		c0.525-0.052,0.984-0.374,1.21-0.851l1.284-2.711c0.236-0.499,0.18-1.087-0.148-1.532L8.319,29.536z"/>
	<path d="M51.843,31.828l-6.288-7.082v-3.074c0-0.377-0.142-0.74-0.397-1.017l-8.62-9.349L35.074,1.284
		c-0.096-0.656-0.611-1.172-1.268-1.268c-0.658-0.098-1.297,0.251-1.577,0.853l-4.73,10.185L9.951,26.03
		c-0.599,0.511-0.701,1.396-0.234,2.03l14.179,19.263c0.284,0.386,0.734,0.61,1.208,0.61c0.047,0,0.096-0.002,0.144-0.007
		c0.525-0.051,0.985-0.374,1.212-0.851l4.284-9.045l5.497,6.544c0.207,0.246,0.488,0.42,0.801,0.494
		c0.808,0.192,1.638,0.29,2.465,0.29h0c4.022,0,7.656-2.229,9.48-5.816l3.071-6.039C52.338,32.954,52.252,32.29,51.843,31.828z"/>
</g>
<g>
</g>
<g>
</g>
<g>
</g>
<g>
</g>
<g>
</g>
<g>
</g>
<g>
</g>
<g>
</g>
<g>
</g>
<g>
</g>
<g>
</g>
<g>
</g>
<g>
</g>
<g>
</g>
<g>
</g>
</svg>
