<?xml version="1.0" encoding="iso-8859-1"?>
<!-- Generator: Adobe Illustrator 18.1.1, SVG Export Plug-In . SVG Version: 6.00 Build 0)  -->
<svg version="1.1" id="Capa_1" xmlns="http://www.w3.org/2000/svg" xmlns:xlink="http://www.w3.org/1999/xlink" x="0px" y="0px"
	 viewBox="0 0 25.965 25.965" style="enable-background:new 0 0 25.965 25.965;" xml:space="preserve">
<g>
	<g>
		<path style="fill:#030104;" d="M23.943,8.534c-1.148-1.667-2.211-2.423-3.191-2.269c-0.084,0.022-1.766-3.049-1.766-3.049
			c-0.631-1.177-1.98-2.345-2.283-1.325c-0.141,0.752,1.658,3.97,1.617,3.995c-0.193-0.101-1.707-3.245-3.057-3.749
			c-2.029-0.76,1.117,3.231,1.389,6.607c0.045,0.376-0.615,0.695-0.939,0.565c-0.75-0.334-1.303-0.589-1.656-0.766
			c-6.8-3.16-11.242,3.432-11.639,9.593c-0.066,0.224-0.055,0.397-0.249,0.231c-0.563-0.488-1.384-1.521-1.677-1.521
			c-0.896,0-0.69,2.62,1.646,4.22c0.187,0.136,0.402,0.129,0.642-0.015c0.238-0.146,0.4-0.184,0.484-0.118
			c0.645,0.602,1.167,1.045,1.564,1.334c0.755,1.018,0.824,1.413,3.661,1.734c2.767,0.358,3.436,0.849,3.879-0.032
			c0.372-0.75-0.069-0.967-0.751-1.467c-0.312-0.226-1.376-0.684-1.376-0.684c6.16-3.748,3.332-5.316,3.332-5.316
			c1.557,0.738,2.266,2.515-1.624,5.032c0,0,4.735,0.424,5.268,1.234c0.783,1.004,1.105,1.384,2.254,1.537
			c0.479,0,0.801-0.178,0.969-0.533c0.615-1.15-2.588-2.561-1.971-3.303c1.645-0.896,3.316-3.133,3.316-5.134
			c2.752,0.017,4.18-2.199,4.18-3.163C25.962,11.062,25.025,10.112,23.943,8.534z M21.38,9.971c-0.488,0-0.885-0.397-0.885-0.887
			c0-0.488,0.396-0.887,0.885-0.887c0.49,0,0.889,0.397,0.889,0.887C22.267,9.574,21.869,9.971,21.38,9.971z"/>
		<path style="fill:#030104;" d="M21.519,8.533c-0.34,0-0.617,0.275-0.617,0.616c0,0.34,0.277,0.616,0.617,0.616
			s0.617-0.276,0.617-0.616C22.136,8.81,21.859,8.533,21.519,8.533z M21.664,9.518c-0.205,0-0.371-0.165-0.371-0.369
			c0-0.203,0.166-0.369,0.371-0.369c0.201,0,0.367,0.167,0.367,0.369C22.031,9.353,21.865,9.518,21.664,9.518z"/>
	</g>
</g>
<g>
</g>
<g>
</g>
<g>
</g>
<g>
</g>
<g>
</g>
<g>
</g>
<g>
</g>
<g>
</g>
<g>
</g>
<g>
</g>
<g>
</g>
<g>
</g>
<g>
</g>
<g>
</g>
<g>
</g>
</svg>
