<?xml version="1.0" encoding="UTF-8" standalone="no"?>
<!-- Created with Inkscape (http://www.inkscape.org/) -->

<svg
   viewBox="0.0 0.0 360 360"
   id="svg2"
   version="1.1">
      <g>
        <path
           id="path2994"
           d="m 206.37443,83.754295 c -3.34952,-4.481186 -8.72756,-7.875846 -13.91041,-11.112067 -5.18286,-3.236221 -12.04332,-6.119858 -18.19685,-6.790024 -6.15355,-0.670166 -12.56868,0.234032 -18.72441,2.769028 -6.15573,2.534996 -12.86658,7.108925 -18.20998,12.440948 -5.3434,5.332016 -10.68197,14.029305 -13.85039,19.55118 -4.75277,8.98725 -6.83351,18.49351 -7.29134,28.07348 -0.56399,9.91793 1.6108,18.96805 6.25459,27.40158 4.49359,7.84971 11.35229,13.10619 18.96063,17.03937 9.01527,5.02942 18.77543,5.62695 28.51707,2.4462 4.73009,-1.60674 9.66359,-5.32065 11.81365,-7.74278 2.15004,-2.42214 0.63065,-0.34685 1.08661,-6.79003 -0.064,-6.07116 1.7205,-13.24243 3.86317,-19.34087 3.05899,-7.00001 5.36948,-13.12517 9.36609,-19.03091 4.16257,-7.18559 10.33466,-15.39367 16.0632,-20.66222 0.62173,-7.943747 -1.718,-13.733988 -5.74163,-18.252885 z"
           />
        <path
           id="path3002"
           d="m 277.12925,174.8172 c -3.03046,5.51994 -9.7949,13.30861 -12.05781,16.38647 -6.87501,9.19594 -16.02757,16.53091 -25.80054,20.91075 -11.71504,5.11164 -24.37605,6.72939 -36.31495,2.72179 -5.37008,-1.87489 -9.78916,-5.45932 -13.01575,-9.08136 -3.22659,-3.62205 -4.47695,-9.57138 -5.08114,-13.156 -4.3226,4.02771 -10.94845,6.56596 -15.38605,7.83842 -9.77776,3.00667 -22.78555,1.19143 -31.50929,-2.13501 -8.90516,-3.62476 -19.44141,-12.98258 -25.10429,-19.79389 -6.49537,-8.9606 -8.37406,-8.68169 -12.22246,-24.43472 -2.958521,-12.11042 1.02875,-23.0088 -2.814166,-25.32043 -7.597472,-6.2925 -7.813542,-5.68595 -18.145072,-10.63092 -13.864723,-6.32845 -28.432076,-8.82768 -43.181103,-7.06037 -11.878409,1.7277 -22.581951,6.98438 -29.0603692,16.56694 -5.1463637,8.37847 -5.3104294,18.42837 -2.7165353,26.88451 3.9184461,11.5467 11.6473615,20.91102 20.7112855,27.98425 12.678751,9.11714 28.698828,14.65838 43.383203,15.74016 6.249842,0.4634 10.545619,0.36994 8.417321,7.87663 -1.90522,9.64193 -4.004565,19.83286 -2.713905,29.33072 0.814521,5.47725 2.94094,10.95626 5.430443,15.48294 7.9178,12.31472 24.396378,17.88046 36.120738,16.83727 15.74609,0.85231 30.55036,-9.80355 43.45406,-12.49344 3.03281,-0.58836 5.52275,-0.58705 8.41995,0.27296 17.71475,7.38364 26.3231,29.09838 40.46457,39.92125 11.1102,8.42803 27.61139,11.3211 42.95435,6.8665 11.76465,-4.48048 15.82432,-10.15264 20.59684,-18.81128 5.95001,-10.11715 8.68347,-24.79295 9.23359,-35.58276 0.0857,-9.26604 -0.79566,-19.33864 -2.1706,-27.70079 -0.5433,-3.30403 -2.26468,-7.92082 -1.90289,-9.2336 20.58302,4.05746 33.32441,-6.0317 46.44095,-18.19685 13.49327,-11.99509 23.43559,-29.07017 29.33069,-44.81102 3.1186,-10.34063 6.09603,-21.26419 6.24673,-31.2336 0.0451,-4.88845 -0.36264,-10.54506 -1.62991,-14.66404 -2.8115,-9.149837 -10.59338,-14.782931 -19.55383,-16.566929 -14.87138,-1.751285 -29.08393,7.806757 -39.10761,16.566929 -3.48511,3.07786 -7.41687,6.99081 -10.04724,10.04724 -4.23277,-8.21995 -12.23141,-14.076419 -20.07019,-16.315623 -5.12161,-1.409454 -12.12381,-1.74366 -17.15224,-1.12336 -10.25899,1.618004 -18.33215,8.014463 -24.94489,14.703403 -8.58921,9.86767 -16.99226,20.28179 -21.72703,32.04725 -4.10386,11.86701 -6.95854,27.17274 -0.27034,37.48032 8.13432,10.58878 21.4825,13.77757 33.4042,11.13385 6.02013,-1.40332 11.99518,-5.38713 17.11023,-8.96326 8.47618,-6.08209 15.30334,-14.68861 20.91338,-22.81102 z"
           />
      </g>
</svg>
