<?xml version="1.0" standalone="yes"?>

<svg version="1.1" viewBox="0.0 0.0 362.1968503937008 240.0734908136483" fill="none" stroke="none" stroke-linecap="square" stroke-miterlimit="10" xmlns="http://www.w3.org/2000/svg" xmlns:xlink="http://www.w3.org/1999/xlink"><clipPath id="p.0"><path d="m0 0l362.19684 0l0 240.07349l-362.19684 0l0 -240.07349z" clip-rule="nonzero"></path></clipPath><g clip-path="url(#p.0)"><path fill="#000000" fill-opacity="0.0" d="m0 0l362.19684 0l0 240.07349l-362.19684 0z" fill-rule="nonzero"></path><path fill="#000000" d="m213.53488 36.054302c-1.0411224 -3.168415 -3.8473358 -9.778652 -7.1968536 -14.259842c-3.3495178 -4.4811897 -7.717407 -9.391075 -12.900253 -12.627296c-5.1828613 -3.23622 -12.04332 -6.1198597 -18.196854 -6.7900257c-6.153549 -0.67016625 -12.56868 0.23403311 -18.724411 2.7690287c-6.155731 2.5349956 -12.866577 7.108924 -18.209976 12.440946c-5.343399 5.33202 -10.681976 14.029308 -13.850395 19.551182c-3.1684113 5.5218697 -3.9448776 8.9011345 -5.160103 13.580051c-1.2152252 4.678913 -1.9251938 9.794399 -2.1312332 14.493439c-0.20603943 4.6990356 -0.14742279 9.133858 0.8950119 13.70079c1.0424347 4.566925 3.2069092 9.844704 5.359581 13.700783c2.1526718 3.856079 4.396324 6.5958023 7.5564346 9.435699c3.1600952 2.8398895 7.5118103 5.612419 11.40419 7.603668c3.892395 1.9912567 7.197296 3.9361343 11.950134 4.343834c4.752838 0.40769958 11.836838 -0.29090118 16.566925 -1.8976364c4.7301025 -1.6067352 9.663605 -5.320648 11.81366 -7.7427826c2.1500397 -2.4221344 0.88319397 -4.639984 1.0866089 -6.790024c0.20341492 -2.1500473 -0.3416443 -3.0551224 0.13386536 -6.110237c0.47549438 -3.0551224 1.3608856 -8.463692 2.7191467 -12.220474c1.3582764 -3.7567825 3.5748138 -7.1063004 5.4304504 -10.320206c1.8556519 -3.213913 3.8022766 -6.1570473 5.703415 -8.963257c1.9011383 -2.8062134 3.2366638 -4.6828537 5.703415 -7.874016c2.466751 -3.191166 7.4225616 -8.602364 9.097107 -11.272968c1.6745453 -2.670601 1.9912567 -1.5822372 0.9501343 -4.750656z" fill-rule="nonzero"></path><path stroke="#000000" stroke-width="2.0" stroke-linejoin="round" stroke-linecap="butt" d="m213.53488 36.054302c-1.0411224 -3.168415 -3.8473358 -9.778652 -7.1968536 -14.259842c-3.3495178 -4.4811897 -7.717407 -9.391075 -12.900253 -12.627296c-5.1828613 -3.23622 -12.04332 -6.1198597 -18.196854 -6.7900257c-6.153549 -0.67016625 -12.56868 0.23403311 -18.724411 2.7690287c-6.155731 2.5349956 -12.866577 7.108924 -18.209976 12.440946c-5.343399 5.33202 -10.681976 14.029308 -13.850395 19.551182c-3.1684113 5.5218697 -3.9448776 8.9011345 -5.160103 13.580051c-1.2152252 4.678913 -1.9251938 9.794399 -2.1312332 14.493439c-0.20603943 4.6990356 -0.14742279 9.133858 0.8950119 13.70079c1.0424347 4.566925 3.2069092 9.844704 5.359581 13.700783c2.1526718 3.856079 4.396324 6.5958023 7.5564346 9.435699c3.1600952 2.8398895 7.5118103 5.612419 11.40419 7.603668c3.892395 1.9912567 7.197296 3.9361343 11.950134 4.343834c4.752838 0.40769958 11.836838 -0.29090118 16.566925 -1.8976364c4.7301025 -1.6067352 9.663605 -5.320648 11.81366 -7.7427826c2.1500397 -2.4221344 0.88319397 -4.639984 1.0866089 -6.790024c0.20341492 -2.1500473 -0.3416443 -3.0551224 0.13386536 -6.110237c0.47549438 -3.0551224 1.3608856 -8.463692 2.7191467 -12.220474c1.3582764 -3.7567825 3.5748138 -7.1063004 5.4304504 -10.320206c1.8556519 -3.213913 3.8022766 -6.1570473 5.703415 -8.963257c1.9011383 -2.8062134 3.2366638 -4.6828537 5.703415 -7.874016c2.466751 -3.191166 7.4225616 -8.602364 9.097107 -11.272968c1.6745453 -2.670601 1.9912567 -1.5822372 0.9501343 -4.750656z" fill-rule="nonzero"></path><path fill="#000000" d="m282.50253 53.01927c-1.0415344 -1.6749763 -2.9448853 -7.152668 -6.2493286 -10.049866c-3.3044739 -2.8972015 -8.455811 -5.9238853 -13.577423 -7.333336c-5.1216125 -1.4094467 -12.12381 -1.7436562 -17.152237 -1.1233597c-5.0284424 0.6203003 -8.860901 2.394577 -13.018372 4.845146c-4.157486 2.4505692 -8.173676 6.042431 -11.926514 9.858269c-3.7528381 3.815834 -6.9693756 7.6955376 -10.590546 13.036743c-3.6211853 5.3412094 -8.556442 12.402016 -11.13649 19.010498c-2.5800476 6.60849 -4.298767 14.3937 -4.3438263 20.640419c-0.045059204 6.2467194 0.9956207 12.268158 4.0734863 16.839897c3.0778656 4.571739 8.82634 8.734909 14.393707 10.590546c5.5673523 1.8556519 12.990372 1.94664 19.010498 0.5433197c6.020111 -1.4033356 11.995178 -5.387146 17.11023 -8.963264c5.1150513 -3.5761108 10.094498 -8.691597 13.580063 -12.493439c3.4855652 -3.801834 6.1111145 -8.597984 7.333313 -10.317581" fill-rule="nonzero"></path><path stroke="#000000" stroke-width="2.0" stroke-linejoin="round" stroke-linecap="butt" d="m282.50253 53.01927c-1.0415344 -1.6749763 -2.9448853 -7.152668 -6.2493286 -10.049866c-3.3044739 -2.8972015 -8.455811 -5.9238853 -13.577423 -7.333336c-5.1216125 -1.4094467 -12.12381 -1.7436562 -17.152237 -1.1233597c-5.0284424 0.6203003 -8.860901 2.394577 -13.018372 4.845146c-4.157486 2.4505692 -8.173676 6.042431 -11.926514 9.858269c-3.7528381 3.815834 -6.9693756 7.6955376 -10.590546 13.036743c-3.6211853 5.3412094 -8.556442 12.402016 -11.13649 19.010498c-2.5800476 6.60849 -4.298767 14.3937 -4.3438263 20.640419c-0.045059204 6.2467194 0.9956207 12.268158 4.0734863 16.839897c3.0778656 4.571739 8.82634 8.734909 14.393707 10.590546c5.5673523 1.8556519 12.990372 1.94664 19.010498 0.5433197c6.020111 -1.4033356 11.995178 -5.387146 17.11023 -8.963264c5.1150513 -3.5761108 10.094498 -8.691597 13.580063 -12.493439c3.4855652 -3.801834 6.1111145 -8.597984 7.333313 -10.317581" fill-rule="nonzero"></path><path fill="#000000" d="m267.37326 101.597374c0.45233154 1.3578262 2.7139282 5.6574783 2.7139282 8.14698c0 2.489502 -0.4510193 3.7121582 -2.7139282 6.790024c-2.262909 3.0778656 -6.5634155 8.1920395 -10.863495 11.67717c-4.3000946 3.4851227 -9.59581 6.8796997 -14.937027 9.233597c-5.341202 2.3538818 -11.057739 4.4361267 -17.11023 4.8897552c-6.05249 0.45362854 -13.8346405 -0.29309082 -19.204727 -2.1679688c-5.3700714 -1.8748932 -9.789154 -5.45932 -13.015747 -9.081375c-3.226593 -3.6220474 -4.224411 -11.086609 -6.3438263 -12.650917c-2.1194305 -1.5643005 -4.018814 2.0428696 -6.372711 3.265091c-2.3538818 1.2222214 -4.1049805 3.073494 -7.750656 4.068245c-3.6456604 0.994751 -9.46106 2.1719131 -14.123352 1.9002609c-4.6622925 -0.27165222 -9.369644 -1.8101501 -13.850403 -3.530182c-4.4807434 -1.7200394 -9.186783 -4.164482 -13.034119 -6.790024c-3.8473282 -2.6255493 -7.152664 -5.43264 -10.049866 -8.963257c-2.8972015 -3.5306244 -5.4776917 -8.010941 -7.333336 -12.220474c-1.8556366 -4.2095337 -2.8954468 -9.0538025 -3.8005219 -13.036743c-0.9050751 -3.9829407 0.49781036 -7.059059 -1.629921 -10.860893c-2.1277313 -3.8018417 -6.4741898 -8.147858 -11.136482 -11.95013c-4.6622925 -3.8022766 -10.681541 -7.966755 -16.837273 -10.863518c-6.155731 -2.8967628 -12.900261 -5.340332 -20.09711 -6.517063c-7.19685 -1.1767273 -16.282589 -1.4098854 -23.083988 -0.54330444c-6.801401 0.86657715 -12.881016 2.9816246 -17.724411 5.7427826c-4.843395 2.7611542 -8.722222 6.892826 -11.3359585 10.824146c-2.6137357 3.9313202 -3.8937006 8.283024 -4.3464565 12.7637825c-0.45275593 4.480751 0.13604546 9.368324 1.6299214 14.120728c1.4938755 4.752411 3.881452 9.72966 7.3333335 14.393707c3.4518805 4.6640396 8.444006 9.788277 13.377953 13.590546c4.9339447 3.8022766 10.805773 6.8709564 16.225721 9.223099c5.4199486 2.3521423 11.767715 3.8035889 16.293964 4.889763c4.526245 1.086174 7.287403 1.4011459 10.863514 1.6272964c3.5761185 0.22616577 8.827652 -0.8136444 10.593178 -0.27033997c1.7655334 0.54330444 0.36264038 2.172348 0 3.530182c-0.36264038 1.3578339 -1.4514465 1.8556519 -2.17585 4.616806c-0.724411 2.7611542 -1.7182846 7.061676 -2.1706085 11.950119c-0.45231628 4.8884583 -1.3578262 11.903336 -0.54330444 17.380585c0.8145218 5.477249 2.9409409 10.956253 5.430443 15.482941c2.489502 4.5266876 6.1566086 8.916443 9.506561 11.67717c3.3499603 2.7607117 6.157486 4.027115 10.593178 4.8871307c4.4356995 0.86001587 9.955818 0.8613281 16.020996 0.27296448c6.0651855 -0.58836365 14.757225 -2.3547668 20.370079 -3.8031464c5.6128693 -1.4483795 9.459763 -3.4387512 13.307083 -4.887146c3.8473358 -1.4483795 6.744095 -3.2147827 9.776901 -3.8031464c3.0328217 -0.58836365 5.522751 -0.5870514 8.419952 0.27296448c2.8972015 0.86001587 5.885391 2.1259918 8.963257 4.887146c3.0778656 2.7611542 6.1999054 7.6058655 9.503937 11.679794c3.3040314 4.073929 6.6539764 8.871384 10.320206 12.763779c3.6662292 3.8923798 7.558182 7.558182 11.67717 10.590546c4.118988 3.0323792 8.691162 5.83815 13.036743 7.603668c4.345581 1.7655334 8.555557 2.9440155 13.036743 2.989502c4.481201 0.04550171 8.916885 -0.22659302 13.850403 -2.7165222c4.933502 -2.4899445 11.812775 -8.3302765 15.750641 -12.223099c3.9378967 -3.8928375 5.4322205 -6.698166 7.876648 -11.133865c2.444458 -4.4356995 5.2510986 -10.139099 6.790039 -15.480316c1.5389099 -5.341202 2.1719055 -10.954071 2.443573 -16.566925c0.27163696 -5.6128693 -0.4519043 -12.493439 -0.81365967 -17.11023c-0.36175537 -4.616806 -0.81365967 -7.2865295 -1.3569641 -10.590561c-0.54330444 -3.304016 -2.2646484 -7.920822 -1.9028931 -9.233597c0.3617859 -1.3127747 1.5385132 1.0853119 4.073517 1.3569641c2.5349731 0.27165222 6.3836365 1.6307831 11.136475 0.27296448c4.752838 -1.3578339 12.175415 -5.115494 17.380585 -8.419952c5.205139 -3.3044586 9.51181 -7.384079 13.850372 -11.406822c4.3385925 -4.022751 8.514893 -7.8862686 12.181122 -12.72966c3.6662292 -4.8433914 6.958008 -10.983818 9.816254 -16.330711c2.8582764 -5.3468933 5.3867188 -10.3643875 7.3333435 -15.750656c1.9466248 -5.386261 3.3053284 -11.361328 4.346466 -16.566925c1.0411072 -5.2056007 1.8551941 -9.778217 1.900238 -14.666668c0.045074463 -4.8884506 -0.36264038 -10.545055 -1.6299133 -14.664043c-1.267273 -4.118984 -2.7147827 -7.2887135 -5.973755 -10.049868c-3.2589722 -2.7611542 -8.917755 -5.6570435 -13.580048 -6.5170593c-4.6622925 -0.8600178 -9.68634 -8.75473E-4 -14.393707 1.3569546c-4.7073364 1.35783 -9.731384 4.2550316 -13.850372 6.7900257c-4.118988 2.534996 -7.3783875 5.342083 -10.863525 8.419947c-3.485138 3.0778656 -6.8337708 6.1548576 -10.047241 10.047245c-3.2134705 3.8923874 -7.6946716 11.089241 -9.233612 13.307087" fill-rule="nonzero"></path><path stroke="#000000" stroke-width="2.0" stroke-linejoin="round" stroke-linecap="butt" d="m267.37326 101.597374c0.45233154 1.3578262 2.7139282 5.6574783 2.7139282 8.14698c0 2.489502 -0.4510193 3.7121582 -2.7139282 6.790024c-2.262909 3.0778656 -6.5634155 8.1920395 -10.863495 11.67717c-4.3000946 3.4851227 -9.59581 6.8796997 -14.937027 9.233597c-5.341202 2.3538818 -11.057739 4.4361267 -17.11023 4.8897552c-6.05249 0.45362854 -13.8346405 -0.29309082 -19.204727 -2.1679688c-5.3700714 -1.8748932 -9.789154 -5.45932 -13.015747 -9.081375c-3.226593 -3.6220474 -4.224411 -11.086609 -6.3438263 -12.650917c-2.1194305 -1.5643005 -4.018814 2.0428696 -6.372711 3.265091c-2.3538818 1.2222214 -4.1049805 3.073494 -7.750656 4.068245c-3.6456604 0.994751 -9.46106 2.1719131 -14.123352 1.9002609c-4.6622925 -0.27165222 -9.369644 -1.8101501 -13.850403 -3.530182c-4.4807434 -1.7200394 -9.186783 -4.164482 -13.034119 -6.790024c-3.8473282 -2.6255493 -7.152664 -5.43264 -10.049866 -8.963257c-2.8972015 -3.5306244 -5.4776917 -8.010941 -7.333336 -12.220474c-1.8556366 -4.2095337 -2.8954468 -9.0538025 -3.8005219 -13.036743c-0.9050751 -3.9829407 0.49781036 -7.059059 -1.629921 -10.860893c-2.1277313 -3.8018417 -6.4741898 -8.147858 -11.136482 -11.95013c-4.6622925 -3.8022766 -10.681541 -7.966755 -16.837273 -10.863518c-6.155731 -2.8967628 -12.900261 -5.340332 -20.09711 -6.517063c-7.19685 -1.1767273 -16.282589 -1.4098854 -23.083988 -0.54330444c-6.801401 0.86657715 -12.881016 2.9816246 -17.724411 5.7427826c-4.843395 2.7611542 -8.722222 6.892826 -11.3359585 10.824146c-2.6137357 3.9313202 -3.8937006 8.283024 -4.3464565 12.7637825c-0.45275593 4.480751 0.13604546 9.368324 1.6299214 14.120728c1.4938755 4.752411 3.881452 9.72966 7.3333335 14.393707c3.4518805 4.6640396 8.444006 9.788277 13.377953 13.590546c4.9339447 3.8022766 10.805773 6.8709564 16.225721 9.223099c5.4199486 2.3521423 11.767715 3.8035889 16.293964 4.889763c4.526245 1.086174 7.287403 1.4011459 10.863514 1.6272964c3.5761185 0.22616577 8.827652 -0.8136444 10.593178 -0.27033997c1.7655334 0.54330444 0.36264038 2.172348 0 3.530182c-0.36264038 1.3578339 -1.4514465 1.8556519 -2.17585 4.616806c-0.724411 2.7611542 -1.7182846 7.061676 -2.1706085 11.950119c-0.45231628 4.8884583 -1.3578262 11.903336 -0.54330444 17.380585c0.8145218 5.477249 2.9409409 10.956253 5.430443 15.482941c2.489502 4.5266876 6.1566086 8.916443 9.506561 11.67717c3.3499603 2.7607117 6.157486 4.027115 10.593178 4.8871307c4.4356995 0.86001587 9.955818 0.8613281 16.020996 0.27296448c6.0651855 -0.58836365 14.757225 -2.3547668 20.370079 -3.8031464c5.6128693 -1.4483795 9.459763 -3.4387512 13.307083 -4.887146c3.8473358 -1.4483795 6.744095 -3.2147827 9.776901 -3.8031464c3.0328217 -0.58836365 5.522751 -0.5870514 8.419952 0.27296448c2.8972015 0.86001587 5.885391 2.1259918 8.963257 4.887146c3.0778656 2.7611542 6.1999054 7.6058655 9.503937 11.679794c3.3040314 4.073929 6.6539764 8.871384 10.320206 12.763779c3.6662292 3.8923798 7.558182 7.558182 11.67717 10.590546c4.118988 3.0323792 8.691162 5.83815 13.036743 7.603668c4.345581 1.7655334 8.555557 2.9440155 13.036743 2.989502c4.481201 0.04550171 8.916885 -0.22659302 13.850403 -2.7165222c4.933502 -2.4899445 11.812775 -8.3302765 15.750641 -12.223099c3.9378967 -3.8928375 5.4322205 -6.698166 7.876648 -11.133865c2.444458 -4.4356995 5.2510986 -10.139099 6.790039 -15.480316c1.5389099 -5.341202 2.1719055 -10.954071 2.443573 -16.566925c0.27163696 -5.6128693 -0.4519043 -12.493439 -0.81365967 -17.11023c-0.36175537 -4.616806 -0.81365967 -7.2865295 -1.3569641 -10.590561c-0.54330444 -3.304016 -2.2646484 -7.920822 -1.9028931 -9.233597c0.3617859 -1.3127747 1.5385132 1.0853119 4.073517 1.3569641c2.5349731 0.27165222 6.3836365 1.6307831 11.136475 0.27296448c4.752838 -1.3578339 12.175415 -5.115494 17.380585 -8.419952c5.205139 -3.3044586 9.51181 -7.384079 13.850372 -11.406822c4.3385925 -4.022751 8.514893 -7.8862686 12.181122 -12.72966c3.6662292 -4.8433914 6.958008 -10.983818 9.816254 -16.330711c2.8582764 -5.3468933 5.3867188 -10.3643875 7.3333435 -15.750656c1.9466248 -5.386261 3.3053284 -11.361328 4.346466 -16.566925c1.0411072 -5.2056007 1.8551941 -9.778217 1.900238 -14.666668c0.045074463 -4.8884506 -0.36264038 -10.545055 -1.6299133 -14.664043c-1.267273 -4.118984 -2.7147827 -7.2887135 -5.973755 -10.049868c-3.2589722 -2.7611542 -8.917755 -5.6570435 -13.580048 -6.5170593c-4.6622925 -0.8600178 -9.68634 -8.75473E-4 -14.393707 1.3569546c-4.7073364 1.35783 -9.731384 4.2550316 -13.850372 6.7900257c-4.118988 2.534996 -7.3783875 5.342083 -10.863525 8.419947c-3.485138 3.0778656 -6.8337708 6.1548576 -10.047241 10.047245c-3.2134705 3.8923874 -7.6946716 11.089241 -9.233612 13.307087" fill-rule="nonzero"></path></g></svg>

