<?xml version="1.0" encoding="iso-8859-1"?>
<!-- Generator: Adobe Illustrator 16.0.0, SVG Export Plug-In . SVG Version: 6.00 Build 0)  -->
<!DOCTYPE svg PUBLIC "-//W3C//DTD SVG 1.1//EN" "http://www.w3.org/Graphics/SVG/1.1/DTD/svg11.dtd">
<svg version="1.1" xmlns="http://www.w3.org/2000/svg" xmlns:xlink="http://www.w3.org/1999/xlink" x="0px" y="0px"
	 xml:space="preserve" >

		<defs>
			<g id="heart-ico">
				<path d="M11.608,21.997c-22.647-12.354-6.268-27.713,0-17.369C17.877-5.716,34.257,9.643,11.608,21.997z"/>
			</g>

			<g id="dog-ico">
				<path d="M2.933,379.802c0,0-24.432,98.829,67.741,98.829c92.163,0,102.156-34.426,102.156-34.426s23.323,25.542,38.862,28.869
				c15.549,3.328,154.348,1.109,154.348,1.109s25.542-35.534-54.41-41.09c0,0,24.432-38.862,15.548-66.632l19.986-3.327
				c0,0,33.315,88.836,55.52,108.821l45.527,1.109c0,0,14.439-6.665-22.214-34.426c-36.644-27.76-28.869-117.704-22.214-146.573
				c6.665-28.869,7.774-98.829-2.218-132.145c-9.993-33.315,0-5.556,0-5.556s63.294,15.548,75.505-23.323
				c0,0,15.549-6.665,12.212-21.095c0,0-49.974-22.204-58.857-26.65c0,0-6.665-19.852-25.819-26.928c0,0,6.522-27.626-1.94-31.929
				c0,0-29.979,18.876-32.207,24.432c0,0-2.219-32.207-7.774-37.752c0,0-37.752,24.432-35.534,58.857
				c0,0-53.301,79.952-46.636,133.253c0,0-179.89,66.622-135.472,205.432C145.069,408.671,76.22,439.769,2.933,379.802z"/>
			</g>

			<g id="cat-ico">
				<path d="M126.078,135.673c-13.148,68.735,8.769,112.56,19.527,124.514c10.758,11.953,25.503,28.285,13.942,59.363
				c-15.137,5.575-13.55,15.138-8.367,19.125c-1.597,7.966,6.77,11.16,11.16,9.562c1.989,4.781,15.137,7.966,21.917-5.977
				c1.989,6.771,47.019,49.209,131.886,37.256c-36.653,89.247-131.484,61.563-125.909,59.564c5.575-1.988,18.723-37.848-14.746-39.847
				c-32.675,2.792-36.223,64.671,10.356,79.483c67.645,21.516,114.281-0.421,146.42-45.422c41.836-58.57,31.231-94.354,28.486-100.607
				c1.598-6.77,21.516-31.871,4.38-118.335c-19.526-91.246-86.062-65.943-112.359-73.909c-26.296-7.965-23.112-71.126-21.715-76.098
				c1.396-4.982,7.573-38.843,1.797-39.044c-5.775-0.201-15.739,8.568-17.327,8.568c-1.597,0-8.167-5.183-8.167-5.183V0L196.2,19.526
				c-22.109-10.155-43.625,0.201-50.204,3.385c-6.579,3.185-12.546,0.794-16.333,1.195c-3.787,0.402-5.384,2.591-5.977,6.771
				c-4.379,2.391-5.977,7.765-6.378,18.331c-7.172,6.579,4.686,21.315,4.686,21.315S137.037,74.511,126.078,135.673z"/>
			</g>

			<g id="huron-ico">
				<path d="M560.898,134.648c-10.064-1.567-18.221-6.68-26.846-11.241c-5.309-2.807-11.086-4.708-16.598-7.14
				c-1.465-0.645-2.782-1.673-4.067-2.656c-1.816-1.396-3.411-3.101-5.312-4.354c-8.201-5.397-13.533-4.333-18.572,4.134
				c-6.475,10.881-16.193,18.38-26.152,25.557c-14.215,10.241-30.706,13.949-47.716,12.926c-16.72-1.004-33.362-3.827-49.947-6.426
				c-37.781-5.912-75.264-14.293-113.702-14.762c-26.397-0.322-51.959,3.863-76.161,15.536c-20.47,9.87-35.104,26.406-50.878,41.727
				c-7.776,7.556-14.721,15.998-22.762,23.24c-5.483,4.933-12.02,8.817-18.425,12.587c-33.134,19.486-53.158,49.213-68.181,83.729
				c-20.482,47.047-18.776,94.566-6.349,142.809c0.885,3.436,1.652,6.94,2.974,10.212c0.779,1.93,2.774,5.019,3.807,4.859
				c2.322-0.354,5.549-1.926,6.345-3.852c3.011-7.287,6.209-14.749,7.499-22.448c3.402-20.371,5.749-40.918,8.703-61.367
				c2.354-16.275,8.319-31.277,16.589-45.435c1.244-2.13,2.513-4.5,2.815-6.879c2.57-20.388,14.994-34.848,29.099-48.115
				c5.577-5.251,12.309-9.258,18.274-14.121c5.23-4.264,9.865-3.464,14.427,0.808c4.565,4.276,9.372,8.348,13.538,12.991
				c5.165,5.761,11.204,8.779,18.959,9.55c24.692,2.448,49.278,0.429,73.856-1.375c2.656-0.195,7.258-3.292,7.226-4.974
				c-0.09-4.631-1.702-10.053-7.442-10.853c-7.891-1.098-15.924-1.697-23.884-1.607c-3.713,0.041-5.235-0.755-6.21-4.174
				c-1.081-3.778-2.746-7.385-4.447-11.82c24.676-8.584,49.294-9.416,74.403-5.643c16.438,2.473,33.065,3.726,49.495,6.255
				c8.789,1.354,17.23,5.219,26.019,6.197c9.335,1.041,19.115,1.225,28.319-0.392c15.133-2.66,29.947-7.128,44.925-10.722
				c4.835-1.159,7.776,1.648,8.919,5.806c3.19,11.607,9.159,21.62,18.107,29.372c6.328,5.479,13.492,10.387,21.036,13.961
				c6.703,3.174,15.667-0.841,19.552-7.173c0.759-1.24,0.849-3.965,0.008-4.92c-3.199-3.644-6.589-7.274-10.498-10.102
				c-4.814-3.484-12.407-4.945-14.888-9.441c-4.59-8.315-7.919-17.564-8.45-27.716c-0.461-8.833,3.244-13.721,10.065-18.103
				c16.94-10.877,33.575-22.232,50.434-33.236c8.67-5.659,18.4-8.091,28.629-9.666c13.052-2.007,23.599-9.335,31.665-19.519
				C574.517,149.797,569.421,135.974,560.898,134.648z"/>
			</g>

			<g id="horse-ico">
				<path d="M141.223,156.808c-3.25,0.229-6.333,1.123-9.547-0.223c0.665-2.153,1.238-4.256,1.975-6.297
				c0.691-1.93,1.523-3.783,0.93-5.921c-0.132-0.482,0.025-1.087,0.168-1.604c1-3.545,0.573-7.135,0.411-10.725
				c-0.224-5.16-1.493-10.034-3.388-14.808c-0.34-0.868-0.319-2.042-0.056-2.956c0.528-1.812,0.33-3.493-0.01-5.296
				c-0.854-4.494-2.311-8.79-3.95-13.025c-0.874-2.254-2.042-4.397-3.174-6.804c-1.214,1.27-1.6,2.681-1.966,4.194
				c-1.056,4.423,0.468,8.348,2.214,12.223c0.838,1.858,1.854,3.641,2.737,5.479c0.33,0.696,0.792,1.483,0.736,2.194
				c-0.224,2.854-0.056,5.713-0.573,8.571c-0.508,2.757-0.569,5.596-0.752,8.404c-0.102,1.563,0.371,3.296-0.152,4.677
				c-1.178,3.148,0.198,6.175-0.066,9.236c-0.07,0.844-0.152,1.687-0.192,2.128c-1.336,0.884-2.423,1.468-3.347,2.234
				c-1.32,1.106-1.793,2.376-0.898,4.144c1,2.001-0.193,4.134-2.361,4.266c-2.504,0.157-5.022,0.01-7.531-0.041
				c-0.264-0.005-0.533-0.264-1.021-0.527c0.939-2.107,1.874-4.104,3.321-5.881c1.468-1.808,3.021-3.605,4.118-5.637
				c0.741-1.386,0.935-3.148,1.046-4.763c0.31-4.362,0.568-8.734,0.594-13.106c0.011-1.757-0.518-3.55-1.021-5.266
				c-0.746-2.555-1.614-5.083-2.584-7.566c-0.676-1.736-1.366-3.545-2.453-5.037c-1.98-2.722-3.133-5.748-4.194-8.887
				c-0.746-2.209-1.833-4.296-2.783-6.438c-0.223-0.498-0.508-0.976-0.767-1.458c-0.274,0.193-0.554,0.387-0.827,0.574
				c0.223,0.67-2.255,0.843-4.007,1.366c-4.372,1.3-8.882,1.873-13.451,1.904c-2.199,0.01-4.397-0.021-6.594,0.07
				c-2.216,0.092-2.508,0.498-2.549,2.712c-0.109,6.662-0.302,13.319-0.333,19.982c-0.016,2.736,0.307,5.469,0.447,8.2
				c0.03,0.63,0.104,1.325-0.125,1.869c-1.607,3.864-0.625,7.733-0.104,11.593c0.229,1.701,0.655,3.377,1.031,5.048
				c0.368,1.65-0.104,3.143-0.952,4.483c-1.097,1.747-1.186,3.372,0.188,4.967c1.609,1.879,0.721,4.062,0.696,6.113
				c-0.005,0.315-0.889,0.889-1.379,0.899c-3.121,0.076-6.243,0.086-9.364,0.005c-1.364-0.036-1.722-0.635-1.15-1.828
				c1.244-2.59,1.851-5.454,3.707-7.79c0.927-1.157,1.3-2.63,1.181-4.215c-0.076-0.995,0.063-2.036,0.297-3.006
				c1.076-4.453,0.446-8.896,0.01-13.34c-0.051-0.522-0.333-1.046-0.591-1.523c-1.988-3.661-2.311-7.541-1.925-11.628
				c0.213-2.229-0.048-4.54-0.337-6.785c-0.495-3.808-1.12-7.602-1.815-11.374c-0.203-1.092-0.843-2.107-1.28-3.148
				c-0.175,0.021-0.353,0.046-0.526,0.065c-0.259,1.275-0.69,2.55-0.744,3.834c-0.195,4.688-0.279,9.385-0.388,14.082
				c-0.016,0.619,0.119,1.249,0.099,1.879c-0.083,2.569-0.271,5.139-0.292,7.713c-0.041,5.551,0.016,11.105-0.015,16.656
				c-0.01,1.549-0.089,3.112-0.333,4.636c-0.094,0.609-0.645,1.203-1.112,1.676c-1.863,1.904-3.179,3.899-1.711,6.657
				c0.576,1.087-0.125,1.971-0.353,3.001c-0.688,3.026-2.808,2.61-4.885,2.601c-1.724,0-3.455,0.02-5.177-0.051
				c-0.734-0.036-1.458-0.27-2.615-0.503c0.612-0.98,1.023-1.59,1.386-2.225c1.562-2.712,3.042-5.459,5.279-7.729
				c1.582-1.6,2.117-3.61,2.531-5.886c0.823-4.534,0.744-9.059,0.759-13.599c0.007-0.7,0.033-1.442-0.165-2.103
				c-1.254-4.123-1.211-8.363-1.216-12.593c-0.005-4.646-1.211-9.115-3.125-13.183c-1.81-3.85-2.465-7.724-2.734-11.821
				c-0.053-0.772-0.442-1.727-1.005-2.245c-3.316-3.066-4.854-7.073-6-11.26c-0.254-0.925-0.119-2.029,0.104-2.988
				c1.003-4.37,1.939-8.732,1.429-13.256c-0.051-0.462,0-0.958-0.134-1.394c-2.049-6.446-4.789-12.593-8.191-18.443
				c-0.061-0.045-0.165-0.061-0.488-0.223c-4.717,2.204-9.595,4.494-14.472,6.764c-1.051,0.49-1.678,1.234-2.115,2.351
				c-1.503,3.834-5.119,4.697-8.32,2.098c-3.506-2.841-4.352-7.267-2.471-11.396c1.768-3.867,3.806-7.548,6.267-11.021
				c0.972-1.374,1.653-3.049,1.143-4.669c-0.914-2.907,0.396-5.228,1.612-7.566c0.937-1.8,2.147-3.458,3.283-5.238
				c-1.432-3.425-3.844-6.675-2.991-11.318c2.823,2.739,5.299,5.142,7.794,7.566c0.952-0.348,1.747-0.64,2.501-0.917
				C30.297,4.956,30.52,2.569,30.764,0c1.78,0.729,2.387,2.107,3.016,3.532c0.912,2.059,1.935,4.07,2.813,5.901
				c1.562,0,2.768-0.203,3.87,0.048c1.98,0.442,3.712,1.257,5.06,3.067c1.072,1.439,2.734,2.531,4.309,3.483
				c3.413,2.059,6.756,4.197,10.085,6.396c5.406,3.583,9.29,8.257,12.525,13.686c0.427,0.718,0.978,1.571,1.681,1.879
				c2.833,1.231,4.72,3.598,6.967,5.522c3.265,2.786,6.743,3.951,11.191,3.349c4.9-0.668,9.359-2.58,14.056-3.775
				c4.154-1.057,8.344-1.326,12.563-0.749c3.25,0.441,6.022,2.12,8.774,3.821c1.509,0.932,3.148,1.835,4.854,2.227
				c5.302,1.216,8.861,4.456,11.319,9.109c4.326,8.193,6.703,17.05,8.703,26.018c0.102,0.446,0.143,0.949,0.051,1.391
				c-0.497,2.529-1.086,5.043-0.589,7.775c-0.279-0.366-0.554-0.727-1.03-1.366c0.157,5.758,0.305,11.253,0.457,16.747
				c-0.143,0.01-0.285,0.021-0.427,0.03c-0.087-0.935-0.173-1.879-0.259-2.813c-0.112,0-0.224,0-0.336,0
				c0,0.895-0.005,1.788,0,2.682c0.025,2.787-0.213,5.616,0.193,8.348c0.213,1.453-1.355,1.229-1.229,2.158
				c0.102,0.701,0.675,1.407,0.578,2.047c-0.162,1.106-1.025,1.32-2.143,1.224c-1.285-0.106-2.422-0.086-2.193-1.899
				c-0.503,0.523-0.868,1.184-1.376,1.336c-0.442,0.132-1.057-0.325-1.61-0.528c-0.233,0.3-0.502,0.65-0.863,1.107
				c-0.223-0.457-0.35-0.731-0.492-1.006c-0.106,0.061-0.284,0.111-0.31,0.203c-0.482,1.63-1.193,3.234-1.351,4.896
				c-0.3,3.188-0.442,6.408-0.341,9.607c0.051,1.67,0.635,3.361,1.198,4.966c0.752,2.133,0.691,4.175-0.259,6.175
				c-0.808,1.706-0.884,3.22,0.411,4.799C141.877,152.908,141.609,154.751,141.223,156.808z M149.855,102.402
				c0.092,0,0.193-0.01,0.284-0.01c0-2.91,0-5.814,0-8.724c-0.091,0-0.192,0-0.284,0.01
				C149.855,96.583,149.855,99.487,149.855,102.402z"/>
			</g>

			<g id="tortoise-ico">
				<path d="M565.399,246.059c0.196-6.079-4.357-10.624-10.514-10.812c-2.342-0.069-4.696-0.143-7.034,0.012
				c-1.824,0.123-3.619,0.094-5.394-0.041c-0.412-0.094-0.837-0.135-1.273-0.11c-6.581-0.689-12.885-2.803-19.322-4.529
				c-5.117-1.371-10.764-0.795-16.174-1.057c-0.697-0.033-1.42,0.27-2.105,0.188c-5.177-0.608-9.559,1.163-13.284,4.582
				c-2.488,2.285-5.373,3.093-8.617,3.093c-7.221,0-14.442,0-21.562,0c-1.714-5.443-3.366-10.881-5.055-16.3
				c-2.134-9.311-5.316-18.307-9.466-26.81c-4.876-11.208-11.09-21.677-19.458-31.008c-9.249-10.311-20.416-17.887-32.203-24.823
				c-8.915-5.247-17.784-10.608-26.341-16.41c-6.675-4.528-12.889-9.747-19.208-14.786c-6.259-4.994-13.692-7.503-21.024-10.212
				c-7.393-2.729-14.88-5.214-22.326-7.813c-6.426-2.244-12.754-4.839-19.302-6.626c-4.092-1.118-8.568-1.644-12.783-1.314
				c-4.524,0.355-9.017,1.808-13.407,3.158c-12.056,3.705-24.088,7.503-36.063,11.46c-11.995,3.962-23.978,3.142-36.251,1.326
				c-11.501-1.701-23.105-2.052-34.851-0.535c-11.539,1.489-20.331,6.92-28.258,14.835c-4.243,4.235-8.743,8.111-13.472,11.673
				c-9.078,4.664-17.858,9.768-26.01,15.704c-3.46,1.616-7.062,2.95-10.588,4.435c-7.833,3.296-12.317,9.874-16.487,16.777
				c-6.414,10.612-11.346,21.938-14.872,33.75c-2.774,9.303-4.304,18.976-6.446,28.47c-1.448,6.435-2.88,12.914-9.996,15.786
				c-2.603,1.053-5.182,2.17-7.789,3.219c-0.559,0.225-1.098,0.478-1.62,0.743c-1.64,0.571-3.28,1.138-4.921,1.709
				c-0.449-0.024-0.901-0.049-1.35-0.069c-1.102-0.065-2.163,0.126-3.15,0.498c-0.212,0.041-0.424,0.094-0.637,0.151
				c-4.675,1.285-7.927,6.52-6.41,11.29c4.288,13.472,11.123,25.944,20,36.748c0.037,0.062,0.069,0.122,0.106,0.184
				c2.982,5.039,7.438,9.355,11.775,13.415c6.202,5.81,5.977,5.455,3.603,13.542c-2.138,7.274-4.941,14.431-5.177,22.239
				c-0.196,6.353,1.909,12.069,3.696,17.937c0.094,0.306,0.188,0.615,0.282,0.922c0,0.021,0.004,0.045,0.008,0.065
				c0.135,0.979,0.453,1.954,0.89,2.904c0.996,3.313,1.954,6.639,2.726,10.005c0.559,2.447,0.224,4.622-0.755,6.531
				c-0.625,0.67-1.146,1.429-1.55,2.253c-0.637,0.722-1.367,1.399-2.187,2.023c-4.549,3.468-7.654,7.503-7.405,13.668
				c0.13,3.223,1.897,5.218,3.852,7.226c2.485,2.55,5.259,4.826,7.634,7.467c3.717,4.137,8.445,5.94,13.741,5.871
				c6.711-0.086,12.448,2.248,17.516,6.263c3.733,2.958,7.401,2.949,11.102,0.571c3.798-2.444,7.417-2.469,11.62-1.004
				c3.17,1.105,6.72,1.118,10.098,1.619c2.24,0.335,3.888-0.347,4.88-1.615c0.241-0.249,0.453-0.522,0.636-0.832
				c0.661-1.126,0.767-2.444,0.412-3.627c-0.082-0.751-0.257-1.526-0.547-2.313c-0.6-1.633-1.424-3.19-2.044-4.807
				c-0.122-0.914-0.383-1.804-0.771-2.647c-0.478-2.375-0.375-4.655,0.143-6.843c2.261-3.35,4.08-6.984,5.443-10.783
				c3.905-7.507,3.644-15.562,2.733-23.811c-0.098-0.873-0.204-1.742-0.297-2.469c2.533,0.453,5.067,0.901,7.601,1.354
				c5.529,1.771,11.126,3.558,16.781,5.137c3.464,0.967,6.969,1.787,10.498,2.514c6.324,1.66,12.791,2.7,19.323,3.007
				c1.84,0.208,3.68,0.412,5.516,0.628c6.916,0.816,13.823,1.812,20.767,2.289c7.605,0.526,15.243,0.624,22.869,0.775
				c5.74,0.114,5.577,0.098,7.993,5.169c0.494,1.032,1.048,2.04,1.624,3.031c1.188,2.514,2.33,5.047,3.436,7.602
				c1.081,2.664,2.122,5.341,3.113,8.037c0.29,3.717-0.596,7.394-3.239,10.927c-2.848,3.807-5.692,7.621-8.47,11.477
				c-4.806,6.659-6.124,14.027-4.072,21.935c0.334,1.297,1.293,2.55,2.256,3.541c5.304,5.455,10.677,10.845,16.083,16.202
				c0.767,0.763,1.758,1.42,2.766,1.791c4.594,1.693,9.38,2.876,12.403,7.393c0.64,0.959,2.697,1.249,4.129,1.339
				c0.171,0.012,0.338,0.028,0.506,0.04c1.313,0.779,2.909,0.983,4.402,0.661c1.995,0.449,3.954,1.081,5.981,1.897
				c3.015,1.216,7.609,2.203,11.077-1.021c1.146-1.064,2.811-1.546,4.096-2.492c1.22-0.897,2.448-1.384,3.725-1.302
				c0.853,0.396,1.738,0.706,2.636,0.935c7.947,4.084,16.111-1.347,20.396-5.811c1.865-1.941,2.077-5.765,0.429-8.486
				c-1.322-2.183-2.737-4.309-4.166-6.43c-1.391-2.497-2.782-4.994-4.174-7.487c-0.611-2.713,0.307-5.169,2.819-7.923
				c7.189-7.858,13.501-16.304,18.548-25.741c2.469-4.614,2.99-9.563,3.529-14.479c0.146-1.334,0.265-2.673,0.375-4.011
				c0.307-1.538,0.408-3.084,0.327-4.606c0.257-4.309,0.411-8.625,0.628-12.934c0.081-1.656,0.682-2.199,2.374-2.366
				c9.038-0.901,18.111-1.632,27.071-3.064c10.608-1.697,21.139-3.921,31.648-6.181c3.599-0.775,7.07-2.224,10.515-3.582
				c2.611-1.032,4.528-0.845,5.63,0.596c0.188,1.465,0.56,2.88,1.094,4.255c0.44,6.969,0.562,13.97,1.281,20.906
				c0.616,5.978,1.86,11.897,3.007,17.805c0.253,1.306,1.008,2.746,1.971,3.647c1.652,1.551,3.011,3.256,4.17,5.067
				c0.432,0.768,0.877,1.53,1.334,2.285c1.636,3.056,2.855,6.332,4.051,9.633c0.359,1.889,0.976,3.68,1.918,5.279
				c0.151,0.392,0.302,0.783,0.465,1.171c2.317,5.614,7.34,6.178,13.917,5.753c2.669-0.171,5.41-0.143,8.042,0.273
				c3.06,0.481,5.998,1.718,9.054,2.216c3.986,0.652,7.731-0.44,11.42-2.073c0.583-0.257,1.228-0.469,1.897-0.62
				c0.534,0.168,1.093,0.282,1.668,0.331c1.562,0.139,3.113,0.114,4.644-0.041c2.28,0.098,4.394-0.425,6.373-1.502
				c2.031-0.767,3.97-1.786,5.772-3.027c1.339-0.367,2.746-0.506,4.276-0.403c3.554,0.236,7.132,0.057,10.702,0.053
				c0.566,0,1.109-0.065,1.636-0.18c0.975-0.102,1.877-0.514,2.647-1.13c2.893-1.95,4.293-5.757,2.521-9.221
				c-0.27-0.53-0.571-1.057-0.885-1.579c-0.421-1.354-1.253-2.591-2.407-3.342c-0.882-1.02-1.845-1.95-2.877-2.717
				c-6.642-4.929-11.722-10.775-13.496-19.009c-0.657-3.048-1.081-6.186-1.24-9.299c-0.314-6.083-0.649-12.187-0.478-18.266
				c0.326-11.542-2.313-21.999-8.642-31.375c-2.023-3.84-4.524-7.405-7.471-10.588c-0.979-1.546-1.934-3.093-2.921-4.586
				c0.832-0.905,1.66-1.815,2.488-2.722c3.668-2.79,8.124-3.378,12.461-3.855c5.618-0.62,10-3.431,14.3-6.564
				c2.697-1.963,4.97-4.549,7.781-6.291c5.218-3.235,11.236-4.166,17.209-5.092c10.755-1.673,21.375-3.688,30.556-10.185
				c5.01-3.541,7.58-8.747,9.225-14.198c2.023-6.69,3.149-13.668,4.438-20.567c0.033-0.179,0.062-0.362,0.09-0.546
				c0.245-0.584,0.453-1.188,0.629-1.812l0.546-4.068c0-0.763-0.057-1.521-0.171-2.268
				C565.33,247.536,565.375,246.798,565.399,246.059z"/>
			</g>
		</defs>


</svg>
