<?xml version="1.0" encoding="iso-8859-1"?>
<!-- Generator: Adobe Illustrator 16.0.0, SVG Export Plug-In . SVG Version: 6.00 Build 0)  -->
<!DOCTYPE svg PUBLIC "-//W3C//DTD SVG 1.1//EN" "http://www.w3.org/Graphics/SVG/1.1/DTD/svg11.dtd">
<svg version="1.1" xmlns="http://www.w3.org/2000/svg" xmlns:xlink="http://www.w3.org/1999/xlink" x="0px" y="0px"
	 xml:space="preserve" >

		<defs>
			<g id="heart-ico">
				<path d="M11.608,21.997c-22.647-12.354-6.268-27.713,0-17.369C17.877-5.716,34.257,9.643,11.608,21.997z"/>
			</g>

			<g id="dog-ico">
				<path d="M2.933,379.802c0,0-24.432,98.829,67.741,98.829c92.163,0,102.156-34.426,102.156-34.426s23.323,25.542,38.862,28.869
				c15.549,3.328,154.348,1.109,154.348,1.109s25.542-35.534-54.41-41.09c0,0,24.432-38.862,15.548-66.632l19.986-3.327
				c0,0,33.315,88.836,55.52,108.821l45.527,1.109c0,0,14.439-6.665-22.214-34.426c-36.644-27.76-28.869-117.704-22.214-146.573
				c6.665-28.869,7.774-98.829-2.218-132.145c-9.993-33.315,0-5.556,0-5.556s63.294,15.548,75.505-23.323
				c0,0,15.549-6.665,12.212-21.095c0,0-49.974-22.204-58.857-26.65c0,0-6.665-19.852-25.819-26.928c0,0,6.522-27.626-1.94-31.929
				c0,0-29.979,18.876-32.207,24.432c0,0-2.219-32.207-7.774-37.752c0,0-37.752,24.432-35.534,58.857
				c0,0-53.301,79.952-46.636,133.253c0,0-179.89,66.622-135.472,205.432C145.069,408.671,76.22,439.769,2.933,379.802z"/>
			</g>

			<g id="cat-ico">
				<path d="M126.078,135.673c-13.148,68.735,8.769,112.56,19.527,124.514c10.758,11.953,25.503,28.285,13.942,59.363
				c-15.137,5.575-13.55,15.138-8.367,19.125c-1.597,7.966,6.77,11.16,11.16,9.562c1.989,4.781,15.137,7.966,21.917-5.977
				c1.989,6.771,47.019,49.209,131.886,37.256c-36.653,89.247-131.484,61.563-125.909,59.564c5.575-1.988,18.723-37.848-14.746-39.847
				c-32.675,2.792-36.223,64.671,10.356,79.483c67.645,21.516,114.281-0.421,146.42-45.422c41.836-58.57,31.231-94.354,28.486-100.607
				c1.598-6.77,21.516-31.871,4.38-118.335c-19.526-91.246-86.062-65.943-112.359-73.909c-26.296-7.965-23.112-71.126-21.715-76.098
				c1.396-4.982,7.573-38.843,1.797-39.044c-5.775-0.201-15.739,8.568-17.327,8.568c-1.597,0-8.167-5.183-8.167-5.183V0L196.2,19.526
				c-22.109-10.155-43.625,0.201-50.204,3.385c-6.579,3.185-12.546,0.794-16.333,1.195c-3.787,0.402-5.384,2.591-5.977,6.771
				c-4.379,2.391-5.977,7.765-6.378,18.331c-7.172,6.579,4.686,21.315,4.686,21.315S137.037,74.511,126.078,135.673z"/>
			</g>
		</defs>


</svg>
